<svg width="254" height="272" viewBox="0 0 254 272" fill="none" xmlns="http://www.w3.org/2000/svg">
<g clip-path="url(#clip0_13025_14421)">
<mask id="mask0_13025_14421" style="mask-type:alpha" maskUnits="userSpaceOnUse" x="-3" y="-2" width="259" height="256">
<path d="M256 -2H-3V254H256V-2Z" fill="url(#paint0_radial_13025_14421)"/>
</mask>
<g mask="url(#mask0_13025_14421)">
<mask id="mask1_13025_14421" style="mask-type:luminance" maskUnits="userSpaceOnUse" x="0" y="3" width="253" height="257">
<path d="M253 3H0V260H253V3Z" fill="white"/>
</mask>
<g mask="url(#mask1_13025_14421)">
<mask id="mask2_13025_14421" style="mask-type:luminance" maskUnits="userSpaceOnUse" x="0" y="3" width="480" height="480">
<path d="M480 3H0V483H480V3Z" fill="white"/>
</mask>
<g mask="url(#mask2_13025_14421)">
<path d="M0.5 3V483" stroke="#DCDEE4"/>
<path d="M32.5 3V483" stroke="#DCDEE4"/>
<path d="M64.5 3V483" stroke="#DCDEE4"/>
<path d="M96.5 3V483" stroke="#DCDEE4"/>
<path d="M128.5 3V483" stroke="#DCDEE4"/>
<path d="M160.5 3V483" stroke="#DCDEE4"/>
<path d="M192.5 3V483" stroke="#DCDEE4"/>
<path d="M224.5 3V483" stroke="#DCDEE4"/>
</g>
<path d="M479.5 3.5H0.5V482.5H479.5V3.5Z" stroke="#DCDEE4"/>
<mask id="mask3_13025_14421" style="mask-type:luminance" maskUnits="userSpaceOnUse" x="-19" y="-32" width="303" height="303">
<path d="M284 -32H-19V271H284V-32Z" fill="white"/>
</mask>
<g mask="url(#mask3_13025_14421)">
<path d="M-19 31.5H284" stroke="#DCDEE4"/>
<path d="M-19 63.5H284" stroke="#DCDEE4"/>
<path d="M-19 95.5H284" stroke="#DCDEE4"/>
<path d="M-19 127.5H284" stroke="#DCDEE4"/>
<path d="M-19 159.5H284" stroke="#DCDEE4"/>
<path d="M-19 191.5H284" stroke="#DCDEE4"/>
<path d="M-19 223.5H284" stroke="#DCDEE4"/>
</g>
<path d="M283.5 -31.5H-18.5V270.5H283.5V-31.5Z" stroke="#DCDEE4"/>
</g>
</g>
<path d="M125.484 203.5C160.831 203.5 189.484 174.846 189.484 139.5C189.484 104.154 160.831 75.5 125.484 75.5C90.1381 75.5 61.4844 104.154 61.4844 139.5C61.4844 174.846 90.1381 203.5 125.484 203.5Z" fill="#F4F6F9"/>
<path d="M59.4844 93.5C62.7981 93.5 65.4844 90.8137 65.4844 87.5C65.4844 84.1863 62.7981 81.5 59.4844 81.5C56.1707 81.5 53.4844 84.1863 53.4844 87.5C53.4844 90.8137 56.1707 93.5 59.4844 93.5Z" fill="#F1F2F4"/>
<path d="M56.4844 195.5C60.9027 195.5 64.4844 191.918 64.4844 187.5C64.4844 183.082 60.9027 179.5 56.4844 179.5C52.0661 179.5 48.4844 183.082 48.4844 187.5C48.4844 191.918 52.0661 195.5 56.4844 195.5Z" fill="#F1F2F4"/>
<path d="M203.484 179.5C207.903 179.5 211.484 175.918 211.484 171.5C211.484 167.082 207.903 163.5 203.484 163.5C199.066 163.5 195.484 167.082 195.484 171.5C195.484 175.918 199.066 179.5 203.484 179.5Z" fill="#F1F2F4"/>
<path d="M188.484 89.5C191.246 89.5 193.484 87.2614 193.484 84.5C193.484 81.7386 191.246 79.5 188.484 79.5C185.723 79.5 183.484 81.7386 183.484 84.5C183.484 87.2614 185.723 89.5 188.484 89.5Z" fill="#F1F2F4"/>
<g filter="url(#filter0_dd_13025_14421)">
<path d="M84.4271 170.814L124.305 152.218C126.307 151.285 127.173 148.905 126.24 146.903L102.69 96.3999L86.7422 90.5957L54.1152 105.81C52.113 106.743 51.2468 109.123 52.1804 111.125L79.1114 168.879C80.045 170.881 82.4249 171.747 84.4271 170.814Z" fill="url(#paint1_linear_13025_14421)"/>
<path d="M86.7422 90.5957L102.689 96.4L91.8136 101.471L86.7422 90.5957Z" fill="#AFB2BB"/>
</g>
<g filter="url(#filter1_dd_13025_14421)">
<path d="M103.484 157.224H147.484C149.693 157.224 151.484 155.433 151.484 153.224V97.5L139.484 85.5H103.484C101.275 85.5 99.4844 87.2909 99.4844 89.5V153.224C99.4844 155.433 101.275 157.224 103.484 157.224Z" fill="url(#paint2_linear_13025_14421)"/>
<path d="M139.484 85.5L151.484 97.5H139.484V85.5Z" fill="#AFB2BB"/>
</g>
<g filter="url(#filter2_dd_13025_14421)">
<path d="M126.115 152.195L165.993 170.79C167.995 171.723 170.375 170.857 171.308 168.855L194.858 118.352L189.054 102.405L156.427 87.1902C154.425 86.2566 152.045 87.1228 151.111 89.1249L124.18 146.879C123.247 148.881 124.113 151.261 126.115 152.195Z" fill="url(#paint3_linear_13025_14421)"/>
<path d="M189.056 102.404L194.86 118.351L183.984 113.28L189.056 102.404Z" fill="#AFB2BB"/>
</g>
<path d="M112.585 138.797C114.3 132.396 120.88 128.597 127.282 130.312L158.191 138.594C164.593 140.309 168.392 146.89 166.677 153.291L158.394 184.201C156.679 190.602 150.099 194.401 143.697 192.686L112.788 184.404C106.386 182.689 102.587 176.108 104.302 169.707L112.585 138.797Z" fill="#4D99FB"/>
<path d="M97.4844 162.7C97.4844 155.979 97.4844 152.619 98.7923 150.052C99.9428 147.794 101.778 145.958 104.036 144.808C106.603 143.5 109.964 143.5 116.684 143.5H134.284C141.005 143.5 144.365 143.5 146.932 144.808C149.19 145.958 151.026 147.794 152.176 150.052C153.484 152.619 153.484 155.979 153.484 162.7V180.3C153.484 187.021 153.484 190.381 152.176 192.948C151.026 195.206 149.19 197.042 146.932 198.192C144.365 199.5 141.005 199.5 134.284 199.5H116.684C109.964 199.5 106.603 199.5 104.036 198.192C101.778 197.042 99.9428 195.206 98.7923 192.948C97.4844 190.381 97.4844 187.021 97.4844 180.3V162.7Z" fill="white" fill-opacity="0.6"/>
<path d="M116.685 144H134.284C137.653 144 140.149 144.001 142.125 144.162C144.095 144.323 145.504 144.642 146.705 145.254C148.869 146.356 150.628 148.115 151.73 150.279C152.342 151.481 152.661 152.889 152.822 154.859C152.984 156.835 152.984 159.332 152.984 162.7V180.3C152.984 183.668 152.984 186.165 152.822 188.141C152.661 190.111 152.342 191.519 151.73 192.721C150.628 194.885 148.869 196.644 146.705 197.746C145.504 198.358 144.095 198.677 142.125 198.838C140.149 198.999 137.653 199 134.284 199H116.685C113.316 199 110.82 198.999 108.844 198.838C106.874 198.677 105.465 198.358 104.264 197.746C102.1 196.644 100.341 194.885 99.2383 192.721C98.6263 191.519 98.3075 190.111 98.1465 188.141C97.9851 186.165 97.9844 183.668 97.9844 180.3V162.7C97.9844 159.332 97.9851 156.835 98.1465 154.859C98.3075 152.889 98.6263 151.481 99.2383 150.279C100.341 148.115 102.1 146.356 104.264 145.254C105.465 144.642 106.874 144.323 108.844 144.162C110.82 144.001 113.316 144 116.685 144Z" stroke="white" stroke-opacity="0.6"/>
<path d="M130.224 161.143H115.641C113.917 161.148 112.521 162.536 112.516 164.25V182.893C112.521 184.607 113.917 185.995 115.641 186H130.224C131.948 185.995 133.344 184.607 133.349 182.893V164.25C133.344 162.536 131.948 161.148 130.224 161.143ZM117.724 176.679H128.141C128.716 176.679 129.182 177.142 129.182 177.714C129.182 178.287 128.716 178.75 128.141 178.75H117.724C117.148 178.75 116.682 178.287 116.682 177.714C116.682 177.142 117.148 176.679 117.724 176.679ZM116.682 173.571C116.682 172.999 117.148 172.536 117.724 172.536H128.141C128.716 172.536 129.182 172.999 129.182 173.571C129.182 174.144 128.716 174.607 128.141 174.607H117.724C117.148 174.607 116.682 174.144 116.682 173.571ZM128.141 170.464H117.724C117.148 170.464 116.682 170.001 116.682 169.429C116.682 168.856 117.148 168.393 117.724 168.393H128.141C128.716 168.393 129.182 168.856 129.182 169.429C129.182 170.001 128.716 170.464 128.141 170.464ZM137.516 160.107V178.75C137.51 180.061 136.676 181.229 135.432 181.667V164.25C135.431 162.878 134.881 161.561 133.905 160.59C132.928 159.619 131.604 159.073 130.224 159.071H116.874C117.314 157.835 118.488 157.005 119.807 157H134.39C136.116 157 137.516 158.392 137.516 160.107Z" fill="white"/>
</g>
<defs>
<filter id="filter0_dd_13025_14421" x="27.8047" y="86.5957" width="122.812" height="128.594" filterUnits="userSpaceOnUse" color-interpolation-filters="sRGB">
<feFlood flood-opacity="0" result="BackgroundImageFix"/>
<feColorMatrix in="SourceAlpha" type="matrix" values="0 0 0 0 0 0 0 0 0 0 0 0 0 0 0 0 0 0 127 0" result="hardAlpha"/>
<feOffset dy="8"/>
<feGaussianBlur stdDeviation="4"/>
<feComposite in2="hardAlpha" operator="out"/>
<feColorMatrix type="matrix" values="0 0 0 0 0.0627451 0 0 0 0 0.0941176 0 0 0 0 0.156863 0 0 0 0.03 0"/>
<feBlend mode="normal" in2="BackgroundImageFix" result="effect1_dropShadow_13025_14421"/>
<feColorMatrix in="SourceAlpha" type="matrix" values="0 0 0 0 0 0 0 0 0 0 0 0 0 0 0 0 0 0 127 0" result="hardAlpha"/>
<feOffset dy="20"/>
<feGaussianBlur stdDeviation="12"/>
<feComposite in2="hardAlpha" operator="out"/>
<feColorMatrix type="matrix" values="0 0 0 0 0.0627451 0 0 0 0 0.0941176 0 0 0 0 0.156863 0 0 0 0.08 0"/>
<feBlend mode="normal" in2="effect1_dropShadow_13025_14421" result="effect2_dropShadow_13025_14421"/>
<feBlend mode="normal" in="SourceGraphic" in2="effect2_dropShadow_13025_14421" result="shape"/>
</filter>
<filter id="filter1_dd_13025_14421" x="75.4844" y="81.5" width="100" height="119.725" filterUnits="userSpaceOnUse" color-interpolation-filters="sRGB">
<feFlood flood-opacity="0" result="BackgroundImageFix"/>
<feColorMatrix in="SourceAlpha" type="matrix" values="0 0 0 0 0 0 0 0 0 0 0 0 0 0 0 0 0 0 127 0" result="hardAlpha"/>
<feOffset dy="8"/>
<feGaussianBlur stdDeviation="4"/>
<feComposite in2="hardAlpha" operator="out"/>
<feColorMatrix type="matrix" values="0 0 0 0 0.0627451 0 0 0 0 0.0941176 0 0 0 0 0.156863 0 0 0 0.03 0"/>
<feBlend mode="normal" in2="BackgroundImageFix" result="effect1_dropShadow_13025_14421"/>
<feColorMatrix in="SourceAlpha" type="matrix" values="0 0 0 0 0 0 0 0 0 0 0 0 0 0 0 0 0 0 127 0" result="hardAlpha"/>
<feOffset dy="20"/>
<feGaussianBlur stdDeviation="12"/>
<feComposite in2="hardAlpha" operator="out"/>
<feColorMatrix type="matrix" values="0 0 0 0 0.0627451 0 0 0 0 0.0941176 0 0 0 0 0.156863 0 0 0 0.08 0"/>
<feBlend mode="normal" in2="effect1_dropShadow_13025_14421" result="effect2_dropShadow_13025_14421"/>
<feBlend mode="normal" in="SourceGraphic" in2="effect2_dropShadow_13025_14421" result="shape"/>
</filter>
<filter id="filter2_dd_13025_14421" x="99.8047" y="82.8145" width="119.055" height="132.352" filterUnits="userSpaceOnUse" color-interpolation-filters="sRGB">
<feFlood flood-opacity="0" result="BackgroundImageFix"/>
<feColorMatrix in="SourceAlpha" type="matrix" values="0 0 0 0 0 0 0 0 0 0 0 0 0 0 0 0 0 0 127 0" result="hardAlpha"/>
<feOffset dy="8"/>
<feGaussianBlur stdDeviation="4"/>
<feComposite in2="hardAlpha" operator="out"/>
<feColorMatrix type="matrix" values="0 0 0 0 0.0627451 0 0 0 0 0.0941176 0 0 0 0 0.156863 0 0 0 0.03 0"/>
<feBlend mode="normal" in2="BackgroundImageFix" result="effect1_dropShadow_13025_14421"/>
<feColorMatrix in="SourceAlpha" type="matrix" values="0 0 0 0 0 0 0 0 0 0 0 0 0 0 0 0 0 0 127 0" result="hardAlpha"/>
<feOffset dy="20"/>
<feGaussianBlur stdDeviation="12"/>
<feComposite in2="hardAlpha" operator="out"/>
<feColorMatrix type="matrix" values="0 0 0 0 0.0627451 0 0 0 0 0.0941176 0 0 0 0 0.156863 0 0 0 0.08 0"/>
<feBlend mode="normal" in2="effect1_dropShadow_13025_14421" result="effect2_dropShadow_13025_14421"/>
<feBlend mode="normal" in="SourceGraphic" in2="effect2_dropShadow_13025_14421" result="shape"/>
</filter>
<radialGradient id="paint0_radial_13025_14421" cx="0" cy="0" r="1" gradientUnits="userSpaceOnUse" gradientTransform="translate(126.5 126) rotate(90) scale(128 129.5)">
<stop/>
<stop offset="1" stop-opacity="0"/>
</radialGradient>
<linearGradient id="paint1_linear_13025_14421" x1="82.0843" y1="170.969" x2="50.305" y2="113.637" gradientUnits="userSpaceOnUse">
<stop stop-color="#E4E7EC"/>
<stop offset="1" stop-color="#F9FAFB"/>
</linearGradient>
<linearGradient id="paint2_linear_13025_14421" x1="101.295" y1="156.375" x2="96.7232" y2="90.984" gradientUnits="userSpaceOnUse">
<stop stop-color="#E4E7EC"/>
<stop offset="1" stop-color="#F9FAFB"/>
</linearGradient>
<linearGradient id="paint3_linear_13025_14421" x1="124.49" y1="150.5" x2="147.982" y2="89.3029" gradientUnits="userSpaceOnUse">
<stop stop-color="#E4E7EC"/>
<stop offset="1" stop-color="#F9FAFB"/>
</linearGradient>
<clipPath id="clip0_13025_14421">
<rect width="254" height="272" fill="white"/>
</clipPath>
</defs>
</svg>
